<svg width="240" height="409" viewBox="0 0 240 409" fill="none" xmlns="http://www.w3.org/2000/svg">
<path d="M162.14 111.239L180.131 18.1948C180.921 14.1031 183.17 10.7568 186.167 8.44762C185.373 7.84399 184.644 7.17149 183.729 6.71371C181.415 5.51456 178.932 5.00002 176.534 5.00002C169.08 5.00002 162.055 10.2261 160.511 18.1948L142.52 111.239L80.249 125.187L81.432 129.315L162.14 111.239Z" fill="#FFCC99"/>
<path d="M25.4849 53.8332C25.2256 52.6341 25.0555 51.4349 25.0555 50.2358C25.0555 45.0746 27.6888 40.2172 31.9061 37.0491C27.0973 33.4314 20.4777 32.4753 14.6034 35.4124C8.94796 38.3253 5.43555 44.1549 5.43555 50.2358C5.43555 51.4349 5.60568 52.6341 5.86496 53.8332L54.4428 268.883V334.941H74.0627V268.883L25.4849 53.8332Z" fill="white"/>
<path d="M221.94 149.194C223.252 147.448 224.865 146.131 226.574 145.021C223.605 143.089 220.23 141.995 216.803 141.995C211.402 141.995 205.921 144.393 202.32 149.194L196.478 156.997L192.812 188.09L221.94 149.194Z" fill="#FFCC99"/>
<path d="M179.272 268.883L232.736 168.555C235.993 162.559 235.564 155.19 231.537 149.62C230.155 147.679 228.425 146.225 226.574 145.021C224.864 146.132 223.252 147.448 221.939 149.194L192.811 188.09L196.478 156.997L173.192 188.09L192.641 23.1617C193.298 17.4008 190.717 11.8993 186.167 8.44772C183.17 10.7569 180.921 14.1031 180.131 18.1949L162.14 111.239L81.432 129.315L80.249 125.187L61.8121 129.315L37.906 45.6944C36.8446 42.0685 34.6691 39.1274 31.9062 37.0491C27.6889 40.2172 25.0557 45.0746 25.0557 50.2358C25.0557 51.4349 25.2258 52.6341 25.4851 53.8332L74.0629 268.883V334.941H157.254V294.587L179.272 268.883Z" fill="#FFCC99"/>
<path d="M44.6755 393.372V350.105C44.6755 341.707 51.4451 334.941 59.7541 334.941H54.443H40.1342C31.8252 334.941 25.0557 341.707 25.0557 350.105V393.372C25.0557 401.681 31.8252 408.45 40.1342 408.45H59.7541C51.4451 408.45 44.6755 401.681 44.6755 393.372Z" fill="white"/>
<path d="M173.191 188.09L192.641 23.1617C193.411 16.3921 189.898 9.79676 183.729 6.71381C181.415 5.51465 178.932 5.00012 176.534 5.00012C169.079 5.00012 162.055 10.2262 160.511 18.1949L142.52 111.239L61.8119 129.315L37.9059 45.6944C34.993 35.7568 23.8563 30.786 14.6034 35.4124C8.94796 38.3253 5.43555 44.1549 5.43555 50.2358C5.43555 51.4349 5.60568 52.6341 5.86496 53.8332L54.4428 268.883V334.941H157.254V294.587L179.272 268.883L232.736 168.555C235.993 162.559 235.564 155.19 231.537 149.62C227.939 144.568 222.369 141.995 216.802 141.995C211.402 141.995 205.921 144.394 202.319 149.194L173.191 188.09ZM173.191 188.09L128.555 194.26" stroke="#231F20" stroke-width="9" stroke-miterlimit="10"/>
<path d="M126.412 194.6L118.188 237.182" stroke="#231F20" stroke-width="9" stroke-miterlimit="10"/>
<path d="M61.812 129.315L76.0317 182.949C78.7744 193.23 88.712 199.83 99.2532 198.371L126.412 194.6H126.668C127.352 194.515 127.952 194.345 128.555 194.259C138.319 191.946 145.173 183.034 144.833 173.011L142.52 111.238" stroke="#231F20" stroke-width="9" stroke-miterlimit="10"/>
<rect x="19" y="333" width="169" height="72" rx="16" fill="white" stroke="#231F20" stroke-width="8"/>
<rect x="39" y="337" width="145" height="64" rx="10" fill="#66CC99"/>
</svg>
